<?xml version="1.0" encoding="utf-8"?>
<!-- Generator: Adobe Illustrator 27.0.0, SVG Export Plug-In . SVG Version: 6.00 Build 0)  -->
<svg version="1.1" id="Calque_1" xmlns="http://www.w3.org/2000/svg" xmlns:xlink="http://www.w3.org/1999/xlink" x="0px" y="0px"
	 viewBox="0 0 146.9 146.9" style="enable-background:new 0 0 146.9 146.9;" xml:space="preserve">
<style type="text/css">
	.st0{opacity:0.24;fill:#242424;}
	.st1{fill:#FFFFFF;}
</style>
<g>
	<path class="st0" d="M111.1,23.7c4.1,9.4,27,86.6,30.2,108.8c0,0-13.5,6.3-15.2-1c-1.1-4.5-2.3-8.7-4.2-12.7
		c-1.2-2.5-2.9-4.2-5.4-5.3c-6.9-3.3-14.1-5.7-21.4-8c-4.6-1.5-8.8-3.8-12.5-7c-0.5-0.5-1.1-1.2-1.1-1.9c-0.2-3.5-0.3-7-0.3-10.5
		c0-0.8,0.4-1.6,0.9-2.3c2-2.6,3.2-5.5,3.5-8.8c0.1-1.1,0.2-2.3,0.3-3.5c1.3,0,2.6-0.1,3-1.5c0.5-1.6,0.8-3.2,1.2-4.9
		c0.3-1.3,0.7-2.6,0.9-4c0.2-1.2,0.5-2.5,0.5-3.8c-0.1-2-0.7-2.6-2.7-2.9c0.3-1.4,0.8-2.8,1-4.2c0.3-2.8,0.4-5.6,0.8-8.3
		c0.6-4,0.4-8.1-0.2-12.1c-0.4-2.4-0.9-4.8-2.8-6.5c-0.9-0.8-2-1.4-3.2-2.1c0.2-0.3,0.5-0.7,1-1.3c-2.1,0-3.9,0-5.8,0
		c-0.7-2.2-1.6-3.1-3.5-3.7c-0.8-0.3-0.2-6.2-1.2-6.7"/>
	<path class="st1" d="M146.9,146.9c-49,0-97.9,0-146.9,0C0,97.9,0,49,0,0c49,0,97.9,0,146.9,0C146.9,49,146.9,97.9,146.9,146.9z
		 M12,132.5c41,0,81.9,0,122.9,0c-1.1-4.5-2.3-8.7-4.2-12.7c-1.2-2.5-2.9-4.2-5.4-5.3c-6.9-3.3-14.1-5.7-21.4-8
		c-4.6-1.5-8.8-3.8-12.5-7c-0.5-0.5-1.1-1.2-1.1-1.9c-0.2-3.5-0.3-7-0.3-10.5c0-0.8,0.4-1.6,0.9-2.3c2-2.6,3.2-5.5,3.5-8.8
		c0.1-1.1,0.2-2.3,0.3-3.5c1.3,0,2.6-0.1,3-1.5c0.5-1.6,0.8-3.2,1.2-4.9c0.3-1.3,0.7-2.6,0.9-4c0.2-1.2,0.5-2.5,0.5-3.8
		c-0.1-2-0.7-2.6-2.7-2.9c0.3-1.4,0.8-2.8,1-4.2c0.3-2.8,0.4-5.6,0.8-8.3c0.6-4,0.4-8.1-0.2-12.1c-0.4-2.4-0.9-4.8-2.8-6.5
		c-0.9-0.8-2-1.4-3.2-2.1c0.2-0.3,0.5-0.7,1-1.3c-2.1,0-3.9,0-5.8,0c-0.7-2.2-1.6-3.1-3.5-3.7c-0.8-0.3-1.6-0.7-2.7-1.1
		c-0.4,0-1.1,0.2-1.8,0.2c-0.5,0-1.1-0.4-1.6-0.3c-1.9,0.2-3.7,0-5.5-0.7c-0.4-0.1-0.9-0.2-1.3-0.2c-2.2-0.2-4.3,0-6.1,1.4
		c-0.5,0.4-1.1,0.6-1.7,0.7c-1.7,0.4-3.7-0.1-4.7,2c-0.1,0.1-0.4,0.1-0.5,0.2c-1.1,0.7-2.4,1.2-3.3,2.1c-2.3,2-4.9,4.1-5.8,7.2
		c-1,3.6-1.8,7.2-2,10.9c-0.3,5.1-0.5,10.2,1.4,15.2c0.1,0.2,0.1,0.4,0.1,0.7c-1.6,0-2.1,0.4-2.5,1.9c-0.4,1.6-0.2,3.2,0.3,4.7
		c0.4,1.2,0.7,2.5,0.9,3.7c0.3,1.2,0.6,2.5,0.8,3.7c0.4,1.9,1.2,3.1,3.4,2.8c0,0.4,0.1,0.6,0.1,0.8c0.1,4.4,1.1,8.5,4.1,12
		c0.3,0.4,0.5,1,0.5,1.6c0,3.2-0.1,6.5-0.1,9.7c0,1.5-0.7,2.5-1.8,3.4c-4.4,3.6-9.4,5.7-14.7,7.4c-6.6,2-13,4.4-19.2,7.4
		c-2.1,1-3.6,2.6-4.6,4.6C14.4,123.5,13.1,127.9,12,132.5z"/>
</g>
</svg>
